<?xml version="1.0" encoding="UTF-8" standalone="no"?>
<svg
   width="64.5mm"
   height="64.5mm"
   viewBox="0 0 64.499998 64.499998"
   version="1.1"
   id="svg11"
   sodipodi:docname="icon.svg"
   inkscape:version="1.4.2 (ebf0e940d0, 2025-05-08)"
   xmlns:inkscape="http://www.inkscape.org/namespaces/inkscape"
   xmlns:sodipodi="http://sodipodi.sourceforge.net/DTD/sodipodi-0.dtd"
   xmlns="http://www.w3.org/2000/svg"
   xmlns:svg="http://www.w3.org/2000/svg">
  <defs
     id="defs11">
    <inkscape:path-effect
       effect="fill_between_many"
       method="originald"
       linkedpaths="#path6-0,0,1|#path6,0,1|"
       id="path-effect8" />
    <inkscape:path-effect
       effect="fill_between_many"
       method="originald"
       linkedpaths="#path6-0-3-0,0,1|#path6-0,0,1|"
       id="path-effect9" />
    <inkscape:path-effect
       effect="fill_between_many"
       method="originald"
       linkedpaths="#path6,0,1|#path6-0-3-0,0,1|"
       id="path-effect10" />
  </defs>
  <sodipodi:namedview
     id="namedview11"
     pagecolor="#ffffff"
     bordercolor="#999999"
     borderopacity="1"
     inkscape:showpageshadow="2"
     inkscape:pageopacity="0"
     inkscape:pagecheckerboard="0"
     inkscape:deskcolor="#d1d1d1"
     inkscape:document-units="mm"
     inkscape:zoom="3.6344315"
     inkscape:cx="121.75219"
     inkscape:cy="121.88976"
     inkscape:window-width="1920"
     inkscape:window-height="1130"
     inkscape:window-x="912"
     inkscape:window-y="1080"
     inkscape:window-maximized="1"
     inkscape:current-layer="svg11" />
  <path
     style="display:inline;fill:none;fill-opacity:0.75078;stroke:#000000;stroke-width:2;stroke-linecap:round;stroke-linejoin:round;stroke-miterlimit:20.3;stroke-opacity:0.56011927;paint-order:markers fill stroke"
     id="path6-0-3"
     sodipodi:type="arc"
     sodipodi:cx="36.822262"
     sodipodi:cy="52.531422"
     sodipodi:rx="23.295712"
     sodipodi:ry="4.659142"
     sodipodi:start="3.1415927"
     sodipodi:end="0"
     sodipodi:open="true"
     sodipodi:arc-type="arc"
     d="M 13.52655,52.531422 A 23.295712,4.659142 0 0 1 36.822262,47.87228 23.295712,4.659142 0 0 1 60.117973,52.531422" />
  <path
     inkscape:original-d="M 0,0"
     inkscape:path-effect="#path-effect10"
     d="m 13.52655,19.723059 a 23.295712,4.659142 0 0 1 23.295712,-4.659142 23.295712,4.659142 0 0 1 23.295711,4.659142 23.295712,4.659142 0 0 1 -11.647856,4.034933 23.295712,4.659142 0 0 1 -23.295712,0 23.295712,4.659142 0 0 1 -11.647855,-4.034935 z"
     id="path10"
     style="fill:#88c0d0;fill-opacity:0.74901962" />
  <path
     style="display:inline;fill:none;fill-opacity:0.75078;stroke:#000000;stroke-width:2;stroke-linecap:round;stroke-linejoin:round;stroke-miterlimit:20.3;stroke-opacity:1;paint-order:markers fill stroke"
     id="path6"
     sodipodi:type="arc"
     sodipodi:cx="36.822262"
     sodipodi:cy="19.723059"
     sodipodi:rx="23.295712"
     sodipodi:ry="4.659142"
     sodipodi:start="3.1415927"
     sodipodi:end="0"
     sodipodi:arc-type="arc"
     d="m 13.52655,19.723059 a 23.295712,4.659142 0 0 1 23.295712,-4.659142 23.295712,4.659142 0 0 1 23.295711,4.659142"
     sodipodi:open="true" />
  <g
     id="g5"
     style="stroke-width:0.464447;stroke-miterlimit:4;stroke-dasharray:none"
     transform="matrix(4.3113727,0,0,4.3010267,-225.76466,-131.02201)">
    <path
       style="fill:#ebcb8b;fill-opacity:1;stroke:#000000;stroke-width:0.464447;stroke-linecap:round;stroke-linejoin:round;stroke-miterlimit:20.3;stroke-dasharray:none;stroke-opacity:1;paint-order:markers fill stroke"
       d="m 59.1866,38.24109 -1.950259,-1.954951 v -4.44307 l 4.297325,-0.01693 2.043129,2.048044"
       id="path4"
       sodipodi:nodetypes="ccccc" />
    <path
       style="fill:#000000;fill-opacity:0.252341;stroke:#000000;stroke-width:0.464447;stroke-linecap:round;stroke-linejoin:round;stroke-miterlimit:20.3;stroke-dasharray:none;stroke-opacity:1;paint-order:markers fill stroke"
       d="m 57.244783,31.843069 2.017801,2.022655"
       id="path5" />
    <rect
       style="fill:#ebcb8b;fill-opacity:1;fill-rule:evenodd;stroke:#000000;stroke-width:0.464447;stroke-linecap:round;stroke-linejoin:round;stroke-miterlimit:4;stroke-dasharray:none;stroke-dashoffset:1.70078;stroke-opacity:1;paint-order:fill markers stroke;stop-color:#000000"
       width="4.3839478"
       height="4.3840842"
       x="59.181118"
       y="33.88533"
       id="rect3" />
  </g>
  <path
     inkscape:original-d="M 0,0"
     inkscape:path-effect="#path-effect9"
     d="m 60.117973,19.723057 a 23.295712,4.659142 0 0 1 -11.647856,4.034935 23.295712,4.659142 0 0 1 -23.295712,0 23.295712,4.659142 0 0 1 -11.647855,-4.034935 v 32.808365 a 23.295712,4.659142 0 0 0 11.647855,4.034935 23.295712,4.659142 0 0 0 23.295712,0 23.295712,4.659142 0 0 0 11.647856,-4.034935 z"
     id="path9"
     style="stroke:#000000;stroke-opacity:1;stroke-width:2;stroke-dasharray:none;fill:#88c0d0;fill-opacity:0.74901962" />
  <path
     style="display:inline;fill:none;fill-opacity:0.75078;stroke:#000000;stroke-width:2;stroke-linecap:round;stroke-linejoin:round;stroke-miterlimit:20.3;stroke-opacity:1;paint-order:markers fill stroke"
     id="path6-0"
     sodipodi:type="arc"
     sodipodi:cx="36.822262"
     sodipodi:cy="52.531422"
     sodipodi:rx="23.295712"
     sodipodi:ry="4.659142"
     sodipodi:start="0"
     sodipodi:end="3.1415927"
     sodipodi:arc-type="arc"
     d="m 60.117973,52.531422 a 23.295712,4.659142 0 0 1 -11.647856,4.034935 23.295712,4.659142 0 0 1 -23.295712,0 23.295712,4.659142 0 0 1 -11.647855,-4.034935"
     sodipodi:open="true" />
  <path
     style="display:inline;fill:none;fill-opacity:0.75078;stroke:#000000;stroke-width:2;stroke-linecap:round;stroke-linejoin:round;stroke-miterlimit:20.3;stroke-opacity:1;paint-order:markers fill stroke"
     id="path6-0-3-0"
     sodipodi:type="arc"
     sodipodi:cx="36.822262"
     sodipodi:cy="19.723057"
     sodipodi:rx="23.295712"
     sodipodi:ry="4.659142"
     sodipodi:start="0"
     sodipodi:end="3.1415927"
     sodipodi:arc-type="arc"
     d="m 60.117973,19.723057 a 23.295712,4.659142 0 0 1 -11.647856,4.034935 23.295712,4.659142 0 0 1 -23.295712,0 23.295712,4.659142 0 0 1 -11.647855,-4.034935"
     sodipodi:open="true" />
  <path
     style="display:none;fill:#000000;fill-opacity:0.75078;stroke:#000000;stroke-width:2;stroke-linecap:round;stroke-linejoin:round;stroke-miterlimit:20.3;stroke-opacity:1;paint-order:markers fill stroke"
     d="m 13.540632,19.874153 v 33.05079"
     id="path7" />
  <path
     style="display:none;fill:#000000;fill-opacity:0.75078;stroke:#000000;stroke-width:2;stroke-linecap:round;stroke-linejoin:round;stroke-miterlimit:20.3;stroke-opacity:1;paint-order:markers fill stroke"
     d="M 60.107328,19.874153 V 52.633747"
     id="path7-2"
     sodipodi:nodetypes="cc" />
  <path
     style="fill:#88c0d0;fill-opacity:0.74902;stroke:#000000;stroke-width:2;stroke-linecap:round;stroke-linejoin:round;stroke-miterlimit:20.3;stroke-dasharray:none;stroke-opacity:1;paint-order:markers fill stroke"
     d="m 13.613431,20.602144 -0.0728,21.76693 c 0,0 0.129199,13.203082 -8.9542888,7.643904 C -1.3141167,46.401843 6.7703159,37.273136 9.4638825,34.142777 12.982087,30.054056 13.613431,20.602144 13.613431,20.602144 Z"
     id="path11"
     sodipodi:nodetypes="ccssc" />
</svg>
