<?xml version="1.0" encoding="UTF-8" standalone="no"?>
<svg
   xmlns:svg="http://www.w3.org/2000/svg"
   xmlns="http://www.w3.org/2000/svg"
   width="64.5mm"
   height="64.5mm"
   viewBox="0 0 64.499998 64.499998">
  <g
     id="layer1"
     transform="translate(-51.412465,-30.276999)">
    <g
       transform="matrix(4.3113727,0,0,4.3010267,-174.35219,-101.80335)"
       style="stroke-width:0.46444698;stroke-miterlimit:4;stroke-dasharray:none">
      <g
         transform="matrix(1.0676639,0,0,1.0668904,-4.5945991,-2.3969197)"
         style="stroke-width:0.43517">
        <path
           style="fill:#f5fe00;fill-opacity:1;fill-rule:evenodd;stroke:#000000;stroke-width:7.08256;stroke-linecap:square;stroke-miterlimit:4;stroke-dasharray:none;stroke-dashoffset:1.70078;paint-order:fill markers stroke;stop-color:#000000"
           d="m 122.14873,227.70956 c -1.69314,-0.0527 -6.31079,-0.33845 -10.26144,-0.63499 -28.776107,-2.15999 -49.904638,-8.45126 -60.108154,-17.89792 l -2.068067,-1.91467 0.162701,-61.32416 c 0.158879,-59.883625 0.178067,-61.336019 0.816868,-61.828572 0.359792,-0.277417 2.655148,-1.499746 5.10079,-2.716281 6.7499,-3.357597 10.92771,-4.617544 29.416123,-8.871352 14.59459,-3.357915 20.098199,-5.34914 23.676319,-8.566173 2.31057,-2.077404 3.17444,-3.975832 3.17444,-6.976078 0,-3.160334 -0.76488,-5.212256 -4.05771,-10.885463 -4.1234,-7.104176 -6.54577,-13.844806 -6.54577,-18.214631 0,-3.885124 1.83521,-8.083135 4.58536,-10.488896 5.64597,-4.938953 17.46983,-7.236702 30.50066,-5.927236 10.29661,1.034705 17.37249,4.589787 20.18393,10.140863 0.9539,1.883445 0.99599,2.160358 0.97511,6.415037 -0.0192,3.914336 -0.13302,4.768931 -0.95076,7.139116 -1.23267,3.572783 -3.11244,7.434395 -5.84349,12.00424 -2.89023,4.836219 -3.7561,7.381596 -3.53972,10.405703 0.29748,4.157613 2.34755,6.570638 7.84648,9.23564 3.9144,1.897076 8.90278,3.392466 18.41454,5.520216 11.64741,2.605485 18.60993,4.396369 23.18663,5.964009 4.46706,1.530087 9.50819,3.847167 12.09624,5.559859 l 1.31626,0.871056 v 61.315303 61.31531 l -2.1378,1.97985 c -11.05496,10.23817 -35.63619,16.72835 -69.17919,18.26539 -7.11881,0.32621 -9.45521,0.34222 -16.76035,0.11483 z"
           transform="matrix(0.0613687,0,0,0.06151632,52.364913,30.709028)" />
        <path
           style="fill:none;stroke:#000000;stroke-width:0.43517;stroke-linecap:butt;stroke-linejoin:miter;stroke-miterlimit:4;stroke-dasharray:none;stroke-opacity:1;paint-order:fill markers stroke"
           d="m 55.394792,35.891734 c 3.550578,1.461044 6.980017,1.274378 9.871422,0.02889" />
        <text
           style="font-weight:600;font-size:4.36091px;line-height:1.25;font-family:'Segoe UI';-inkscape-font-specification:'Segoe UI Semi-Bold';letter-spacing:0px;stroke-width:0.0250524"
           x="57.522995"
           y="41.916039">PC</text>
      </g>
    </g>
  </g>
</svg>
